<svg xmlns="http://www.w3.org/2000/svg" xmlns:xlink="http://www.w3.org/1999/xlink" version="1.1" width="1080" height="1080" viewBox="0 0 1080 1080" xml:space="preserve">
    <g transform="matrix(1 0 0 1 540 540)" id="1c130d71-6895-4dbe-807d-efdc9d61948a"  >
</g>
    <g transform="matrix(1 0 0 1 540 540)" id="c78550aa-156b-4609-86b1-42a59695f11d"  >
<rect style="stroke: none; stroke-width: 1; stroke-dasharray: none; stroke-linecap: butt; stroke-dashoffset: 0; stroke-linejoin: miter; stroke-miterlimit: 4; fill: rgb(255,255,255); fill-rule: nonzero; opacity: 1; visibility: hidden;" vector-effect="non-scaling-stroke"  x="-540" y="-540" rx="0" ry="0" width="1080" height="1080" />
</g>
    <g transform="matrix(45 0 0 45 474 467.44)"  >
<path style="stroke: rgb(255,255,255); stroke-width: 1.5; stroke-dasharray: none; stroke-linecap: round; stroke-dashoffset: 0; stroke-linejoin: round; stroke-miterlimit: 4; fill: none; fill-rule: nonzero; opacity: 1;"  transform=" translate(-12, -12.15)" d="M 21.75 9 L 21.75 9.906 C 21.750032495669277 10.733654992992916 21.2956717453897 11.49450761032499 20.567 11.887 L 14.089 15.375 M 2.25 9 L 2.25 9.906 C 2.249967504330722 10.733654992992916 2.704328254610299 11.49450761032499 3.432999999999999 11.887 L 9.911 15.375 M 18.75 17.884999999999998 L 14.09 15.374999999999998 M 14.09 15.374999999999998 L 13.067 14.824999999999998 C 12.400907863396226 14.466215545076839 11.599092136603772 14.466215545076839 10.933 14.824999999999998 L 9.911 15.374999999999998 M 9.911 15.374999999999998 L 5.25 17.884999999999998 M 21.75 19.499999999999996 C 21.75 20.74264068711928 20.742640687119284 21.749999999999996 19.5 21.749999999999996 L 4.5 21.749999999999996 C 3.257359312880715 21.749999999999996 2.25 20.74264068711928 2.25 19.499999999999996 L 2.25 8.844 C 2.2503352419177443 8.016703728286492 2.704643979200931 7.25632224069502 3.4329999999999985 6.864 L 10.933 2.823999999999999 C 11.599092136603772 2.4652155450768394 12.400907863396228 2.4652155450768403 13.067 2.823999999999999 L 20.567 6.863999999999999 C 21.29535602079907 7.256322240695019 21.749664758082254 8.01670372828649 21.75 8.844 L 21.75 19.5 z" stroke-linecap="round" />
</g>
</svg>
